<svg xmlns="http://www.w3.org/2000/svg" viewBox="0 0 130.9 117"><defs><style>.cls-1{fill:#3fa9f5;}</style></defs><title>Fichier 5</title><g id="Calque_2" data-name="Calque 2"><g id="Calque_1-2" data-name="Calque 1"><path class="cls-1" d="M129.08,51.72,103.14,6.78A13.57,13.57,0,0,0,91.39,0H39.51A13.57,13.57,0,0,0,27.76,6.78L1.82,51.72a13.52,13.52,0,0,0,0,13.56l25.94,44.94A13.57,13.57,0,0,0,39.51,117H91.39a13.57,13.57,0,0,0,11.75-6.78l25.94-44.94A13.52,13.52,0,0,0,129.08,51.72Zm-28.71,30.2a14.1,14.1,0,0,1-12.59,14V37.58h5.59a7,7,0,0,1,7,7ZM81.12,96H68.53V67.71a6.3,6.3,0,0,1,12.59,0Zm-18.34-.08a14.1,14.1,0,0,1-12.58-14V76.16a14.11,14.11,0,0,1,12.58,14Zm0-47a14.1,14.1,0,0,1-12.58,14V22h1.13A11.46,11.46,0,0,1,62.78,33.45ZM43.53,79.42A14.1,14.1,0,0,1,31,65.42V28.29A6.29,6.29,0,0,1,37.24,22h6.29Z"/></g></g></svg>