<svg xmlns="http://www.w3.org/2000/svg" viewBox="0 0 130.9 117"><defs><style>.cls-1{fill:#3fa9f5;}.cls-2{fill:#fff;}</style></defs><title>Fichier 4</title><g id="Calque_2" data-name="Calque 2"><g id="Calque_1-2" data-name="Calque 1"><path class="cls-1" d="M91.39,0H39.51A13.57,13.57,0,0,0,27.76,6.78L1.82,51.72a13.52,13.52,0,0,0,0,13.56l25.94,44.94A13.57,13.57,0,0,0,39.51,117H91.39a13.57,13.57,0,0,0,11.75-6.78l25.94-44.94a13.52,13.52,0,0,0,0-13.56L103.14,6.78A13.57,13.57,0,0,0,91.39,0Z"/><path class="cls-2" d="M44.28,80.23A14.85,14.85,0,0,1,30.2,65.42V28.29a7.05,7.05,0,0,1,7-7h7Z"/><path class="cls-1" d="M43.53,22V79.42A14.1,14.1,0,0,1,31,65.42V28.29A6.29,6.29,0,0,1,37.24,22h6.29M45,20.5H37.24a7.79,7.79,0,0,0-7.79,7.79V65.42A15.59,15.59,0,0,0,45,81h0V20.5Z"/><path class="cls-2" d="M49.45,21.25h1.88a12.21,12.21,0,0,1,12.2,12.2V48.92A14.85,14.85,0,0,1,49.45,63.73Z"/><path class="cls-1" d="M51.33,22A11.46,11.46,0,0,1,62.78,33.45V48.92a14.1,14.1,0,0,1-12.58,14V22h1.13m0-1.5H48.7v44h0A15.58,15.58,0,0,0,64.28,48.92V33.45a13,13,0,0,0-13-13Z"/><path class="cls-2" d="M63.53,96.73A14.85,14.85,0,0,1,49.45,81.92V75.35A14.85,14.85,0,0,1,63.53,90.17Z"/><path class="cls-1" d="M50.2,76.16a14.11,14.11,0,0,1,12.58,14v5.75a14.1,14.1,0,0,1-12.58-14V76.16m-1.5-1.58h0v7.34A15.59,15.59,0,0,0,64.28,97.5h0V90.17A15.58,15.58,0,0,0,48.7,74.58Z"/><path class="cls-2" d="M67.78,96.75v-29a7,7,0,0,1,14.09,0v29Z"/><path class="cls-1" d="M74.83,61.42a6.29,6.29,0,0,1,6.29,6.29V96H68.53V67.71a6.3,6.3,0,0,1,6.3-6.29m0-1.5h0A7.8,7.8,0,0,0,67,67.71V97.5H82.62V67.71a7.79,7.79,0,0,0-7.79-7.79Z"/><path class="cls-2" d="M87,36.83h6.34a7.76,7.76,0,0,1,7.75,7.75V81.92A14.85,14.85,0,0,1,87,96.73Z"/><path class="cls-1" d="M93.37,37.58a7,7,0,0,1,7,7V81.92a14.1,14.1,0,0,1-12.59,14V37.58h5.59m0-1.5H86.28V97.5a15.59,15.59,0,0,0,15.59-15.58V44.58a8.51,8.51,0,0,0-8.5-8.5Z"/></g></g></svg>