<svg xmlns="http://www.w3.org/2000/svg" viewBox="0 0 76 67"><defs><style>.cls-1{fill:#0098ff;}</style></defs><title>Fichier 2</title><g id="Calque_2" data-name="Calque 2"><g id="Calque_1-2" data-name="Calque 1"><path class="cls-1" d="M20,67H36V42a8,8,0,0,0-8-8h0a8,8,0,0,0-8,8Z"/><path class="cls-1" d="M14.76,67H16V0H8.5A8.51,8.51,0,0,0,0,8.5V52.24A14.76,14.76,0,0,0,14.76,67Z"/><path class="cls-1" d="M48,67H40V8.5A8.51,8.51,0,0,1,48.5,0H56V59A8,8,0,0,1,48,67Z"/><path class="cls-1" d="M64.21,47H60V0h4.21C70.72,0,76,6.27,76,14V33C76,40.73,70.72,47,64.21,47Z"/><path class="cls-1" d="M68,51h0a8,8,0,0,1,8,8v0a8,8,0,0,1-8,8H60a0,0,0,0,1,0,0V59A8,8,0,0,1,68,51Z"/></g></g></svg>